<svg xmlns="http://www.w3.org/2000/svg" width="370.25" height="829.07" viewBox="0 0 370.25 829.07">
  <defs>
    <style>
      .cls-1 {
        fill: #43122a;
      }
    </style>
  </defs>
  <g id="Layer_2" data-name="Layer 2">
    <g id="Layer_2-2" data-name="Layer 2">
      <path class="cls-1" d="M56.8,0s.89,36.07,30.07,57.06c6.94-3.08-3.09-26.6,0-29.69s17.35,0,20.82,4.25,13.11,2.69,15.42,4.62,12.72,6.56,26.6,24.29c0,0,20-5.78,33.93,2.7,0,0,23.91-32.39,60.92-23.52,0,0,7.33,5-1.93,15.42-3.08,8.1.77,10,6.56,8.1s15,1.54,29.3-43.95a63.87,63.87,0,0,1,1.44,13.48c.12,9.23-1.4,22-8.38,34.33-13.11,23.13-31.62,22.74-37.79,20.43,0,0-2.31-7.71-1.92-13.49S228,62.46,222.2,65.16s-21.59,12-22,18.5,2.32,13.5,3.86,18.9,16.19-9.64,16.19-9.64.39,19.28-14.26,25.44c0,0,11.18,22,11.18,27s11.95,12,16.57,37S255.36,202,255.36,202s-6.17,5-13.5,2.7-10.41-20.44-16.58-28.15-8.86-25.06-13.11-22.74,8.49,17.73,8.87,22,2.7,11.57.77,11.95,10.8-.77,13.11,19.67,6.94,47.42,8.87,49,6.55,35.86,9.64,42,18.71,33.93,26.51,77.88l5.1-2.7s-.77,11.57,3.86,27.37,10.79,36.25,9.25,38.56,64.39,92.53,72.1,97.16c0,0-17.35-1.93-30.84-9.25s-47-66.32-47-66.32.38,14.65-1.93,17-13.88,8.48-14.65,10.41-3.86-5-.77-8.49,8.1-11.56,7.32-17.73,0-14.65-3.08-14.65-4.63,17.73-10.41,19.66-7.33,0-7.33,0,1.55-4.63,3.86-13.88,1.54-24.68,1.54-24.68l-32.77-45.49s-5.4,4.63,5,23.13,25.83,81.74,27.76,86c.8,1.76,5.27,15.13,10.25,30.94,7,22.22,15,49.28,15.2,55.81.38,11.18-36.24,151.52-18.51,170s20.44,28.92,45.88,33.93c0,0,8.87.77,6.56,15.81,0,0-20.82,5.39-47.81,2.31,0,0-5.4-7.71-11.57-7.71s-5.4,3.47-5.4,3.47-20,.38-25.06-3.09.39-52.43.39-52.43S223,674.72,223,660.07s13.49-75.57,13.49-75.57-26.21-54.75-27.76-57.45-53.59-7.32-55.52-2.7-15.87,89.14-15.8,97.93c.06,7.25-2.07,39.31-3.47,56.68-1,12.06-2.94,91.76,3,100.45,8.3,12.12,16.65,34.49,4.7,43.75s-35.86,7.32-39.33-3.47-2.31-26.61-.38-32.78-.39-49.73-2.32-59S79.93,662.38,81.86,652s12.33-63.62,9.25-69-4.63-50.9-3.08-57.45-27.76,3.47-31.23,10,19.27-83.28,24.29-89.45,4.62-30.84,6.55-38.55,31.62-78.27,38.94-84.44-5.4-35.85-10.41-39.32S115,300.35,110,320.39s-35.47,82.26-36.24,94.15,1.93,24.22,1.93,30.39,4.62,35.08-9.64,37.4-24.68,12.72-25.45-27,7.33-31.1,10-40.8S64.51,353.94,64.51,330s4.24-27,10-43.95-7.32-83.28,4.63-92.15S95,182.75,97.28,182.37s-59.76-79.43-67.86-81.74S7.83,89.06,1.28,83.28,15.16,63.62,22.87,62.07,32.51,90.6,37.13,92.92s68.63,82.51,70.17,82.51,7.33-3.09,8.49-5.79-5-10.41.38-20-.77-18.89-.77-23.51,7.71-12,7.71-13.5-13.79-2.31-15.61-26.67c0,0,10,12.13,21,14,0,0,1.54-18.12,5.78-18.89s-14.65-23.14-26.6-24.29S103.06,70.56,100,74.8,88.8,84.44,81.09,77.88,46,48.19,56.8,0Z"/>
    </g>
  </g>
</svg>
