<svg id="Layer_1" data-name="Layer 1" xmlns="http://www.w3.org/2000/svg" viewBox="0 0 688.58 675.55"><defs><style>.cls-1{fill:#fff;}</style></defs><text y="161"/><path class="cls-1" d="M38.08,514.55c0-6,0-11.18,0-16.39q-.33-128.6-.74-257.17c0-3.19,1.12-4.76,3.76-6.27,19-10.84,38-21.83,56.92-32.78,1.54-.88,3-1.83,5.12-3.09L0,139.38l18.94-11q85.88-49.87,171.75-99.77C206,19.67,221.34,10.8,236.58,1.76a6.22,6.22,0,0,1,7.23,0c32.18,18.66,64.46,37.14,96.6,55.86,3.08,1.8,5.22,1.62,8.13-.08,32-18.6,64.14-37.06,96.17-55.66,2.58-1.5,4.47-1.8,7.22-.19Q550.8,59.22,649.77,116.59c12.72,7.39,25.37,14.89,38.81,22.78L585.44,198.86c4.67,2.73,8.77,5.16,12.9,7.55,16.63,9.59,33.3,19.11,49.84,28.87,1.55.91,3.18,3.3,3.18,5q-.12,135.59-.58,271.15c0,.75-.07,1.5-.15,3.05-1.82-.94-3.34-1.65-4.79-2.49Q530.76,445.6,415.7,379.16c-22.48-13-45-25.77-67.45-38.86-3-1.77-5.09-1.58-8,.09Q191.73,426.21,43.08,511.86C41.69,512.66,40.27,513.38,38.08,514.55ZM444.21,198.68h-.27c0-23.75,0-47.51,0-71.27,0-2.58-.35-4.37-2.93-5.85q-47.07-27-94-54.27a4.87,4.87,0,0,0-5.64.06q-46.54,27-93.21,53.75c-2.56,1.46-3.53,3-3.53,6q0,71.94-.38,143.89c0,2.87,1.06,4.21,3.37,5.53q46.67,26.79,93.2,53.79c2.57,1.49,4.37,1.39,6.91-.08q46.33-26.88,92.86-53.46c2.71-1.55,3.63-3.27,3.62-6.35C444.15,246.5,444.21,222.59,444.21,198.68ZM415.94,373.73l230,132.58V240.17ZM42.64,506.39C119.87,461.86,196,418,272.72,373.74L42.64,240.13ZM678.83,139.18,448.79,5.69c-.15,1.23-.25,1.67-.25,2.11,0,36.37.11,72.75,0,109.13,0,3.13,1.76,4.1,3.86,5.31Q514.54,158.06,576.64,194c2.85,1.66,4.91,1.62,7.75,0q45.2-26.28,90.54-52.31C676.07,141,677.16,140.23,678.83,139.18ZM239.92,5.67,10,139.22c1.07.77,1.52,1.16,2,1.45q46.66,26.93,93.31,53.9c2.63,1.52,4.37.63,6.54-.62q62.34-36,124.77-71.82c2.65-1.52,3.28-3.23,3.26-6-.1-16.84,0-33.69,0-50.53C239.93,45.87,239.92,26.19,239.92,5.67ZM350,334.82c.45.59.58.91.82,1.05,19.48,11.29,38.95,22.59,58.52,33.74,1.07.61,3.17.3,4.37-.34,4.78-2.54,9.38-5.4,14.05-8.12L604,258.81l37.06-21.52c-1.8-1.17-3.12-2.09-4.5-2.89-17.16-9.92-34.4-19.68-51.42-29.83-3.77-2.25-6.36-2-10,.14q-65.57,38.21-131.31,76.1C412.66,298.81,381.45,316.72,350,334.82Zm-11.13.48a19.41,19.41,0,0,0-1.76-1.37q-113-65.26-226-130.59c-2.28-1.32-3.69-.84-5.6.27q-27.06,15.7-54.19,31.31c-1.1.63-2.12,1.4-3.47,2.3,1.34.85,2.2,1.44,3.09,2q111.9,65,223.76,130a4.77,4.77,0,0,0,5.66,0c12.54-7.4,25.18-14.63,37.78-21.91Zm-99.3-63.43V126.17l-126.2,73ZM449.31,126.43V271.8l126-72.73ZM443.44,117V8.64L349.56,62.73Zm-198.27.09,94-54.32-94-54.2Z" transform="translate(0 161)"/></svg>