<svg id="Lag_1" data-name="Lag 1" xmlns="http://www.w3.org/2000/svg" width="210mm" height="297mm" viewBox="0 0 595.28 841.89"><defs><style>.cls-1{fill:none;stroke:#a9a9a9;stroke-miterlimit:10;}</style></defs><path class="cls-1" d="M454.91,460.81l-1.7-9.87-7.49-26.22s-7.15-18.38-9.53-30.29l-2.38-11.92S415.43,302.17,410,294.34s-11.92-22.47-16-36.77-19.41-65-19.41-67.4-1.7-22.81-22.12-26.21c-5.11-.68-13.28.68-13.28.68s-6.13,1-13.62-4.09-9.19-15-9.19-15-4.85-13.71,3.43-37.2c4.1,2.72,8.83,1.63,8.77-3.8-1.75-9.94,1.78-13.86,1.78-13.86,5.54-10.66,1.44-25.31,1.44-25.31l-.62-2c-.62-2-2.11-1.7-3.05.35.38,4.12-1,8.68-2.64,12.47C322.42,50,302,30.77,279.59,33.14s-38.3,25.44-35.82,51.67c-3.18-3.44-7.08-8.55-8-13.74-1.46-1.73-3-1.57-3,.48l-.07,2s0,15.21,8.21,24c0,0,4.45,2.82,5.44,12.87,1,3.66,3.64,4.65,6.25,3.66a73.4,73.4,0,0,0,14.74,20.29h0s8.57,9.13,6.19,15.6c-7.15,6.13-17,15.66-17,15.66a79.9,79.9,0,0,1-16.68,0c-7.83-1-20.43.34-28.6,12.25-3.74,5.11-3.06,12.94-3.06,12.94S188,289.23,181.21,305.23,169,331.11,165.89,358.68s-13.61,64.68-13.61,64.68-4.09,9.19-4.09,15.32-6.47,18.72-9.53,24.85-3.75,10.56-2.72,16,2,15,1,17.36-.34,6.47,3.4,10.56,4.43,10.21,4.43,10.21,5.44,5.45,7.49,0-5.45-16.34-5.45-16.34l-.34-5.45a25.92,25.92,0,0,0,12.6,13.62l4.08,3.4s6.47,5.11,4.43-3.4c0,0,8.85,2,1.7-7.83a87.43,87.43,0,0,1-5.72-6.85c1.1.81,3,1.59,6.4,1.74,1.7.34,4.76.68,6.13,1.71s4.76,0,3.4-4.77-8.17-4.09-8.17-4.09-7.15-.68-4.77-15.31c1-4.43,1.37-5.11,3.75-9.54l2.38-4.42s4.43-8.17-1-23.49c-1.36-4.77,1-10.9,1-10.9s6.13-8.17,10.9-22.46S202,361.74,202,361.74s-9,35.41-5.19,72.43,12.25,98,12.25,98-5.1,17.36-1,31.92c2,5.61,13,17.1,13,17.1s11.58,20.17,23.83,123.66c.34,14.64,5.11,23.49-18.38,48-8.17,5.79-18.38,12.94-37.45,18.39-8.85,3.74-14.3,5.78-13.27,11.23s8.17,9.19,30.29,8.51S234,785.91,234,785.91s9.87-5.78,21.11-1.7,28.25,2,28.25,2,9.87-2.39,4.09-16.35-14.64-28.59-12.6-49,3.06-30.63,8.85-56.51c3.06-13.27,9.53-44.93,0-57.19s-20.77-36.08-20.77-36.08l9.54-108.36s12.25,48.44,36.08,84.87c1.36,3.4-1.36,18,3.41,26.89s8.51,14.64,8.51,14.64a41.07,41.07,0,0,1,7.49,20.42c0,6.47-.34,10.9,7.15,25.54s34.38,75.57,42.89,88.51a19.75,19.75,0,0,1,0,12.59c-1,2.73-4.4,9.88,1,15.32,2.36,4.77,2.73,19.41,0,23.83s-12.28,28.94,3.38,32c7.49,1,31.32,3.41,46-3.06,5.11-2.73,8.85-9.19,6.47-15.32s-14-21.11-14-21.11-1-17-11.23-29.27c-3.75-5.45-5.45-23.15-5.45-23.15s-.68-40.17-8.17-56.85-9.87-43.92-9.87-43.92,2-8.85-18.72-35.06S348.36,534,348.36,534L337.47,413.83s0-20.43-10.56-51.06-20.08-48.68-15-75.24c9.53-26.55,25.19-58.89,25.19-58.89s19.4,15,29.27,52.08c2.73,10.22,5.11,26.9,5.11,26.9s.68,13.61,10.21,28.25,36.77,66.73,36.77,66.73,1.7,5.44-5.45,13.61-7.15,13.62-7.15,13.62A29.39,29.39,0,0,1,404.53,440c-1.7,4.77,1,7.15,1,7.15s.34,9.87-.68,14-2.72,8.85,2.73,6.13,8.17-6.13,7.83-11.24,1.7-12.93,1.7-12.93,14,22.46,14.3,42.55,7.83,24.17,7.83,24.17,2.72,2.38,3.4-4.09a115.69,115.69,0,0,1-1.36-13.61s2.72-1,4.08-7.49,7.49-13.12,7.49-13.12S456.62,470.68,454.91,460.81Z"/></svg>