<svg xmlns="http://www.w3.org/2000/svg" width="893.8" height="873.21" viewBox="0 0 893.8 873.21">
  <defs>
    <style>
      .cls-1 {
        fill: #a9a9a9;
      }
    </style>
  </defs>
  <g id="Layer_2" data-name="Layer 2">
    <g id="Layer_2-2" data-name="Layer 2">
      <path class="cls-1" d="M814.57,206.65l-68.79,43.23c-3.93-16.66-9.43-30.21-15.76-41.25l5.25-9.1h-11c-11.19-15.89-24-25.33-35.22-30.93l2.11-13.12-13,8.56c-4.83-1.63-9-3.13-11.92-4.23a40.82,40.82,0,0,0-10.74-2.43c-4.21-.37-10.18-.88-16.06-1.3-27.36.17-45,13.93-45,13.93l-17.51-17.83-6.93-6.46c-3.65-17.56-10.8-31.16-19.39-41.67h0C609.6,5.36,542.4,0,542.4,0c34,38.51-14.79,83.91-14.79,83.91h0a104.93,104.93,0,0,0-37.85-14.75l-19.27-15.8L455.1,79.42A128.26,128.26,0,0,0,439,93.7s-65.37-11-63.11-74.45c0,0-56.64,45.08,44.74,102.39-9.06,22.53-3.32,39.63-3.32,39.63s-2.05,39.32-31.53,33.42c-7.26-1.45-16-.5-25,1.91L348.92,182l-3.47,20a151.26,151.26,0,0,0-18.57,9.37l-17.41-11.74,2.67,22.05c-5.5,4.65-8.77,8.85-8.52,11.6,1,10.8-7.86,38.32-12.77,43.23s-17.69-6.88-17.69-6.88c-9.83,49.13,39.3,59.94,39.3,59.94,0,12.77-40.28,51.09-44.21,60.92S228,430.68,216.17,430.68s-24.57-78.61-24.57-78.61l-12.77-30.46,10.81-8.85-3.93-6.87,19.65-27.52L169,284.27,142.48,243,116,220.4l5.89,32.43-3,12.77L0,313.75C53.06,449.34,156.23,445.41,156.23,445.41s-9.82-6.87-39.3-34.39-3-130.68,30.46-82.53,36.35,120.85,36.35,120.85c-27.51,40.29,38.33,69.77,38.33,69.77l21.61,31.44c-4.91,3-6.88,25.55,7.86,27.51s14.74-24.56,14.74-24.56-2.95-13.76,3-16.71-13.76-31.44-13.76-31.44-5.89-16.7,14.74-26.53,75.66-33.41,75.66-33.41C328.18,479.8,341,525,341,525c-35.38,19.66-84.5,165.08-84.5,165.08s8.84,20.63,25.54,24.56-2,17.69-2,17.69c-40.29,17.69-39.31,29.48-40.29,53.06S287.9,820.76,303.62,810s82.54-23.58,93.35-24.56,0-28.5,0-28.5L408.76,753l5.89-18.66c6.88,0,33.41-19.66,33.41-19.66,21.62,25.55,84.5,18.67,84.5,18.67s10.81,49.13,22.6,51.1,68.78-28.5,62.89-17.69,9.82,24.57,9.82,24.57c-36.35,15.72-32.42,43.23-31.44,64.85s55,19.65,88.43,10.8,46.19-40.28,63.87-47.16-10.81-46.18-10.81-46.18c42.26-25.55-19.65-75.66-3.93-83.52s78.6-34.4,73.69-53.07-85.63-62.07-124.94-131.83-37.18-102.67-37.18-102.67,3.74,27.49,14.55,52.06c74.86,137.36,197,169.72,197,169.72s22.73-43.95,35.55-113.36C904.94,400.77,814.57,206.65,814.57,206.65Z"/>
    </g>
  </g>
</svg>
