<svg xmlns="http://www.w3.org/2000/svg" width="499.68" height="861.8" viewBox="0 0 499.68 861.8">
  <defs>
    <style>
      .cls-1 {
        fill: #a9a9a9;
      }
    </style>
  </defs>
  <g id="Layer_2" data-name="Layer 2">
    <g id="Layer_2-2" data-name="Layer 2">
      <path class="cls-1" d="M498.29,566c-1.2-6-12-7.21-12-7.21s8.41-25.21,6-36-39.62-40.57-48-38.9-54-.72-54,8.88S375.83,524,381.83,530L299,483.87s7.2-11.53,1.2-16.33a18.12,18.12,0,0,0-13.21-3.6V451.88s45.63-67.19,39.62-84a225.77,225.77,0,0,1-8.87-34s-20-38.69-28.45-48.29c0,0-9.92-52.26-74.08-54.24,0,0-3.94-24.33-11.7-23.13,0,0-3-26.41-12.57-27.61,0,0-8.4-27.61-45.62-39.62,0,0-7.56-35,13.21-44.42,52.82-24,65.19,176.85,166.88,120.06C417.85,165,476.68,70.13,476.68,70.13S437.06,106,387.83,127.76C350,144.51,300.19,154.18,275,112.15,237.23,49.24,211.17-10.95,164.52,1.7c-70.84,19.21-38.35,129.52-62.36,142.73C80,156.59,67.11,173,62,184c-4,8.71-13.93,26.57-4.33,35,0,0-10.14,10.8-7.47,19.21,0,0-8.36,9.6-.44,20.41,0,0-13.54,13.21-3.41,19.21,0,0-30.7,4.8-41.5,50.43s10.8,82.84,18,85.24,22.81,0,22.81,0l19.21,20.41-4.81,10.81s-25.21-2.41-30,24c0,0-25.21,20.41-21.61,32.41S25.25,524,34.85,520.36c0,0-44.36,112.86-33,133.27,0,0,28.15-13.2,48.57-14.4v19.21s-14.39,4.8-15.59,12S43.26,777.3,43.26,777.3s-19.21,18.75-20.41,51.62S69.67,861.8,81.68,861.8s27.61-55.69,34.81-59.29-13.2-33.62-13.2-33.62l8.4-19.21L130.9,674l-8.4-6s13.2-40.82,16.81-43.22S189.65,614,203.5,620s34.79,55.22,34.79,55.22l-18.54-6s27.61,64.83,46.82,91.25c0,0-24,26.41-10.8,43.22s115.25,36,132.06,36,37.22-36,22.82-50.43-78-33.61-78-33.61l-20.42-92.45h-10.8l-6-50.43,12,4.8s-3.6-64.83-31.21-100.85c0,0,10.8,13.21,18,9.61l14.4-7.21L377,564.79s-7.21,45.62,0,64.83,49.22,31.22,56.43,32.42,48-7.21,50.42-15.61,0-22.81,0-22.81,12,2.4,14.41-6S499.49,572,498.29,566ZM249.84,422.32s-4,20.45-11.55,21.2-13.61-12.62-13.61-12.62c28-70.17,13.61-88.84,13.61-88.84,12.11,1.51,21.89,36.12,21.89,36.12C255.63,382.72,249.84,422.32,249.84,422.32Z"/>
    </g>
  </g>
</svg>
