<svg xmlns="http://www.w3.org/2000/svg" width="513.02" height="893.81" viewBox="0 0 513.02 893.81">
  <defs>
    <style>
      .cls-1 {
        fill: #a9a9a9;
      }
    </style>
  </defs>
  <g id="Layer_2" data-name="Layer 2">
    <g id="Layer_2-2" data-name="Layer 2">
      <path class="cls-1" d="M492.79,257.36c5.06,2.17,16.62,0,16.62,0-4.34,0-16.62-23.12-16.62-23.12,10.11,3.61,20.23,0,20.23,0-13.73-9.39-26.73-36.13-26.73-36.13,5.78-7.23-5.78-44.08-5.78-44.08,9.39-5.78,16.61-32.51,16.61-32.51-70.09,21.67-86.76,2.15-90.37,1.43S415.7,112,415.7,112L403,114.68l-10.66,3.47S385.22,112,384.08,104c-.6-4.17,11.85-20.26,11.85-20.26L379.65,90l-1-7.64c.44-3.07,3.54-11.85,6-13.75,13.45-10.49,22-39.25,22-39.25-6.16.77-15,8.39-16.5,9,0-7-2.07-34.36-30.73-38.14-48.77-2.89-40.11,46.25-40.11,46.25l-1.4-4a38.79,38.79,0,0,0-5.26-7.46L305,27.13c-.39,37,16.42,38,16.42,38,6.25,22.59,15.26,23.47,15.26,32.41s-8.94,28.1-8.94,28.1C289.44,155,258.61,149.9,258.61,149.9L269,167.78c-10.22,24.27,1.28,46,1.28,46-7.67,38.32-3.83,17.88,1.27,62.58S219.2,446.48,219.2,446.48l15.32-9.21c-12.77,20.44,8.95,40.87,2.56,43.43s-17.88-5.11-17.88-5.11l12.77,23s1.28,17.88-85.57,183.92S0,893.81,0,893.81s20.13-6.94,81.89-62.45S244.29,526,244.29,526l9.71,1.38s-16.65-18.73,8.33-39.13,10.41-33.73,10.41-33.73,0-16,6.25-14.58,28.45,99.24,31.92,110.35-2.08,31.92,5.55,56.9c43,116.6,43,189.47,43,189.47S363,809.15,347,822.33c-39.56,35.4-74.26,12.5-74.26,12.5,11.1,27.06,40.25,31.22,46,25s48.34-8.33,48.34-8.33-11.1,22.9-7.64,31.92,40.26,6.25,45.81,6.25S415.7,873,415.9,867.44s-7.14-34.7-7.14-34.7l10.41,3.47s-6.24-15.26-12.49-54.13S444.85,621.77,423.42,584c17.34-169.09-2.17-235.56-7.52-242.07S422,321.67,422,321.67c-14.46-5.78-15.18-28.18-15.18-28.18,69.37,37.57,99,13.73,99,13.73L496.4,300C499.29,284.82,487.73,255.19,492.79,257.36ZM415.7,266s20.79-26,24.25-38.7c0,0,4.62,31.77,14.44,38.7C454.39,266,426.09,270.6,415.7,266Z"/>
    </g>
  </g>
</svg>
