<svg xmlns="http://www.w3.org/2000/svg" width="356.52" height="584.53" viewBox="0 0 356.52 584.53">
  <defs>
    <style>
      .cls-1 {
        fill: #a9a9a9;
      }
    </style>
  </defs>
  <g id="Layer_2" data-name="Layer 2">
    <g id="Layer_2-2" data-name="Layer 2">
      <path class="cls-1" d="M332,312.28c6.14,2.63,20.16,0,20.16,0-5.26,0-20.16-28.06-20.16-28.06,12.27,4.38,24.55,0,24.55,0-16.66-11.4-32.44-43.84-32.44-43.84,7-8.77-7-53.48-7-53.48,11.4-7,20.17-39.46,20.17-39.46-85.05,26.31-105.28,2.62-109.66,1.74s10.86-13.27,10.86-13.27L223,139.15l-12.94,4.2s-8.65-7.51-10-17.14c-.73-5.06,14.37-24.6,14.37-24.6l-19.76,7.53-1.15-9.27c.52-3.72,4.29-14.37,7.26-16.68,16.32-12.72,26.74-47.62,26.74-47.62-7.49.93-18.21,10.18-20,10.85C207.44,38,205,4.74,170.22.15,111-3.36,121.55,56.26,121.55,56.26l-1.7-4.89a48,48,0,0,0-6.38-9l-9.33-9.4C103.67,77.76,124.06,79,124.06,79c7.58,27.41,18.52,28.49,18.52,39.34s-10.85,34.09-10.85,34.09c-46.49,35.64-83.9,29.44-83.9,29.44l12.61,21.7C48,233,62,259.37,62,259.37c-9.3,46.49-4.65,21.7,1.55,75.94S0,541.74,0,541.74l18.6-11.16C3.1,555.37,72,570,72,570s9.5-2.91,17.08-1.22S256,604.94,256.3,566.23c.8-101.75-12.92-145.66-17.63-151.37-6.5-7.89,7.38-24.55,7.38-24.55-17.54-7-18.42-34.2-18.42-34.2,84.17,45.59,120.12,16.66,120.12,16.66L336.35,364C339.86,345.59,325.83,309.65,332,312.28Zm-93.54,10.45s25.22-31.53,29.43-47c0,0,5.6,38.54,17.52,47C285.38,322.73,251,328.34,238.43,322.73Z"/>
    </g>
  </g>
</svg>
