<svg xmlns="http://www.w3.org/2000/svg" width="382.74" height="563.32" viewBox="0 0 382.74 563.32">
  <defs>
    <style>
      .cls-1 {
        fill: #a9a9a9;
      }
    </style>
  </defs>
  <g id="Layer_2" data-name="Layer 2">
    <g id="Layer_2-2" data-name="Layer 2">
      <path class="cls-1" d="M382.74,516.92c-53.95-69.08-102.11-89.19-102.11-89.19C289.38,407.49,302,309.58,302,309.58c-1.64,7.11-12,21.88-12,21.88,1.09-12.58-1.64-96.81-6.57-126.35s-31.72-29-31.72-29c-9.51-18.3-5.47-73.29-5.47-73.29,15.86-2.19,26.25-19.14,26.25-19.14-17.5-1.1-26.8,2.18-26.8,2.18,1.1-50.32-25.16-58-25.16-58C224.29,17,217.18,0,217.18,0c.55,10.39-8.2,20.24-8.2,20.24-10.4-4.92-25.71.54-25.71.54C177.8,17.5,171.24,0,171.24,0c-1.65,20.43,4.37,27.9,4.37,27.9C145,40.08,148.3,90.2,148.3,90.2c-7.05-5-28.69-1-28.69-1,11.58,14.1,32.54,17.48,32.54,17.48a1.2,1.2,0,0,0-.57.69c-3.76,5.21-9.75,22.06-7.15,34.15,2.64,12.24-11.6,27.07-17.18,32.33-10.37,2.15-23.67,12.25-25.46,18.53-2.1,7.35,9.44,130.13,11.54,142.72s-17.84,81.85-17.84,81.85L77.65,440S89.79,426.49,0,509.28C30.56,583.52,277.72,576.59,382.74,516.92ZM159.5,173.48c-2.21,0-4.95.13-8,.26,3.79-4.55,9.81-13.09,9.25-21-.81-11.41-5.7-20.57-1.83-25.67,1.49-2,2.44-5.27,3-8.59,3.24,3.74,6.53,8.2,8,13.45C173.46,144.56,165.8,173.48,159.5,173.48Zm50.2-18.58v-8.17c9.48-1.82,19.54-25,23.13-34.06a11.41,11.41,0,0,1,1.37-3.59s-.5,1.38-1.37,3.59c-3.72,15.76,5,61.28,5,61.28C206.47,166.34,209.7,154.9,209.7,154.9Zm52.86,187.52s-7.52-14-8.06-25.27.54,93.54-.54,107c0,0-37.63-62.9-34.4-111.81-.2-18.82,22.57-24.73,32.25-65.59C251.81,246.73,265.79,337.58,262.56,342.42Z"/>
    </g>
  </g>
</svg>
