<svg xmlns="http://www.w3.org/2000/svg" width="515.19" height="911.17" viewBox="0 0 515.19 911.17">
  <defs>
    <style>
      .cls-1 {
        fill: #a9a9a9;
      }
    </style>
  </defs>
  <g id="Layer_2" data-name="Layer 2">
    <g id="Layer_2-2" data-name="Layer 2">
      <path class="cls-1" d="M515.19,627.17C458.58,402.91,338.92,352.93,338.92,352.93c7.22-16.7,17.6-97.48,17.6-97.48-1.35,5.86-9.93,18.05-9.93,18.05.91-10.38-1.35-79.88-5.41-104.26S315,145.32,315,145.32c-7.84-15.1-4.51-60.47-4.51-60.47,13.09-1.81,21.66-15.8,21.66-15.8-14.44-.9-22.11,1.81-22.11,1.81C310.94,29.34,289.28,23,289.28,23c3.16-9-2.71-23-2.71-23,.45,8.58-6.77,16.7-6.77,16.7-8.58-4.06-21.21.45-21.21.45C254.07,14.44,248.66,0,248.66,0c-1.36,16.86,3.61,23,3.61,23-25.22,10.05-22.54,51.41-22.54,51.41-5.81-4.16-23.67-.83-23.67-.83C215.61,85.23,232.91,88,232.91,88a1,1,0,0,0-.47.57c-3.11,4.31-8,18.21-5.9,28.19S217,139.1,212.37,143.44c-8.56,1.77-19.53,10.11-21,15.29-1.74,6.06,7.79,107.37,9.52,117.76S186.16,344,186.16,344l-14.72,19.05s13-7.8-64.07,57.14S0,638.42,0,638.42c92.65-38.1,153.26-95.24,153.26-95.24-7.79,49.35,0,75.33,0,75.33,15.58-17.32,42.43-92.65,42.43-92.65C199.15,567.42,251.12,666,251.12,666c6.48,15.91,10.37,35.68,16.43,63.39s4.33,50.22,0,74.46c-.86,90.92,28.58,107.37,28.58,107.37s18.18-24.24,7.79-50.12c-23.38-52.71-11.26-123-11.26-123,6.06,5.19,12.12,42.43,12.12,60.61s42.43,64.94,46.76,62.34,6.06-32-22.51-74.46S301.32,680,301.32,680c-1.73-94.37-20.78-120.35-20.78-120.35,3.46-4.33,17.32-46.76,17.32-46.76,7.79,27.71,90.05,95.25,90.05,95.25,4.33-11.26,0-49.36,0-49.36C401.76,573.48,515.19,627.17,515.19,627.17ZM239,143.15c-1.83,0-4.09.1-6.62.21,3.13-3.76,8.09-10.8,7.63-17.29-.67-9.41-4.71-17-1.51-21.18,1.23-1.62,2-4.35,2.51-7.09,2.67,3.09,5.39,6.77,6.6,11.1C250.5,119.28,244.17,143.15,239,143.15Zm41.42-15.34v-6.74c7.82-1.5,16.12-20.64,19.08-28.1a9.58,9.58,0,0,1,1.13-3s-.41,1.13-1.13,3c-3.07,13,4.13,50.56,4.13,50.56C277.73,137.25,280.4,127.81,280.4,127.81ZM324,282.54s-6.21-11.53-6.65-20.85.44,77.18-.44,88.27c0,0-31.05-51.89-28.39-92.26-.16-15.52,18.63-20.4,26.61-54.11C315.14,203.59,326.68,278.55,324,282.54Z"/>
    </g>
  </g>
</svg>
