<svg xmlns="http://www.w3.org/2000/svg" width="351.06" height="928.02" viewBox="0 0 351.06 928.02">
  <defs>
    <style>
      .cls-1 {
        fill: #a9a9a9;
      }
    </style>
  </defs>
  <g id="Layer_2" data-name="Layer 2">
    <g id="Layer_3" data-name="Layer 3">
      <path class="cls-1" d="M154.47,69.38s-13.67-32.63,9.67-47.29,27-6.75,35-9.21S205,4.69,205,4.69s3.79,6.79.25,8.67,5.6,1.87,9.35-4S216.72,0,216.72,0s6.1,11-1.17,17.11c0,0,19.69,7.73,12.89,34.68,1.43,7.5-.23,18.75-.23,18.75s.11-3.75,3.58-1.13.53,28.91-3.1,29.59-3.36-3.18-3.36-3.18-.62,18.3-2,21.48-5.45,8-5.45,8l.45,10.9s40.33,16.1,41.88,21.36,35.48-8,46.46,45.5c1.83,47.58-9.15,54.89-7.32,89.66C319,302.73,341,411.15,338.71,418.47s14.64,44.83,7.77,52.15-13.26,11.89-15.55,12.81-11.89-1.38-13.72-2.75-1.37-14.64-1.37-16.92-2.29,6.86-5.49,7.31-8.7-5.94-8.7-5.94,2.75-15.56,5-16.47-5-12.81,3.2-22.41a22.4,22.4,0,0,1-5.49-3.66c-3.2-2.75-17.84-31.11-24.7-42.55s-20.91-54.77-25.65-75.9c0,0,10.55,91,22.44,118.45S303.48,547,296.16,569s-4.57,27.45-2.28,32,5,41.17-1.37,48.49,9.14,43,0,73.65l-8.24,10.06s-7.78,67.7,2.75,85.54,45.38,48.95,61.11,61.76c6.59,15.55,0,13.27,0,13.27s-10.79,15.09-55.62,5.94c0,0-26.08-11-30.2-14.18s-15.09,2.29-15.09,2.29-18.76,0-24.25-5,8.69-62.22,10.07-69.08S218.4,728.16,221.14,725l-9.6-7.32s-3.66-45.75-.46-47.12,13.27-38.88,16.93-43.46-9.15-49.4-12.36-56.72-19.21-96.55-22.87-102.48-15.09,38.9-13.26,46.22S165.34,569,166.71,577.2s-11,52.15-22.42,63.59c-4.57,11,5,62.21-34.31,124s1.38,135.86,0,145S113.19,923,106.32,924s-51.69,8.69-56.72,0-8.69-7.32-7.32-29.28,5.95-27,5.95-39.34,2.74-28.36,6-54.89,2.74-57.18,2.74-57.18l-5-10.53s9.6-30.64,9.6-42.54,12.81-42.08,20.13-56.72-6.86-190.76,42.54-273.55c0,0,8.24-24.71-1.82-54.9s-17.85-42.08-19.22-56.26-24.24,34.3-36.59,43.45c0,0,.91,31.57-5,51.24s-13.26,27-12.8,33.85-3.21,27.9-3.21,35.22,24.25,6.86,26.08,29.74.91,26-1.37,25.6-12.36-7.76-11.9-14.63-5-3.66-5-3.66S61.49,472.9,65.61,472s-7.32,14.18-16,12.35-27.45-5.49-32.94-5.49S8,461,9.8,447.75s2.63-19.22-.51-27S2.94,405.2,2.94,405.2-7.58,300,11.18,275.75,45.94,214.9,51,207.59s0-53.07,69.08-63.13c0,0,31.33-7.32,34.42-15.1s7.19-10.52,6.51-15.55S157.1,101,157.1,101s-2.74,4.12-5.95-4.57S145.43,63.38,154.47,69.38Z"/>
    </g>
  </g>
</svg>
