<svg xmlns="http://www.w3.org/2000/svg" width="335.5" height="601.27" viewBox="0 0 335.5 601.27">
  <defs>
    <style>
      .cls-1 {
        fill: #a9a9a9;
      }
    </style>
  </defs>
  <g id="Layer_2" data-name="Layer 2">
    <g id="Layer_3" data-name="Layer 3">
      <path class="cls-1" d="M129,32.77C141.47,1.34,166.53-2.45,185.31,1.08s29.94,10,37,31.69,7,68.68-7.63,98.62,10-29.35,1.76-46.37c0,0-9.77,36-21.51,44.82,0,0-.21,13.88,6.25,20.92s28.17-5.87,47.55,12.33,34,94.5,37.56,119.16,0,25.82,3.52,38.15S315.13,365.47,322,442.71h4.88s14.63,80.49,5.69,93.09-20.33,17.48-25.21,17.48,5.69-6.88,6.51-15,4.06-35-2-45.95-8.53,13-6.09,19.92,2.84,13.82.4,13-11-9.35-9.35-18.7-3.66-26-1.22-29.67,7.73-13.82,7.73-17.48-7.32-8.13-4.07-10.17c0,0,3.25-12.19-4.47-25.61S259.43,367.1,257,331.32C244.8,298,239.27,274.09,237.24,268c0,0-34.38,79.42,17.92,133.25,33.1,36.89,35.58,148.39,30.29,164.24-1.32,4-2.49,10.15-3.56,17.45-27.18,13-40.93,26.25-84.53,4-7.09-41.57-12.9-78-10.7-83.64-1.21-5.28-4.87-4.47-6.91-.4-1,1.92-8.87,41.65-18.62,84.53-22.5,12.41-54.41,25.62-100.38-4.48,2.47-64,9.4-131.8,25.94-167.83,35.09-76.43,35.48-85,13.26-147.79-14,3.12-19.89,49.91-23.79,56.54s-1.56,44.46-46.8,116.6c5.85,14.82-4.68,13.26-1.17,18.33S41.84,468.92,33.26,511c-3.51,11.86-9.36,12.48-9.36,9.75s1.56-17.54-1.56-17.54-8.19,19.88-.39,25.34,15.21,8,17.94,9.68,23,12.55-17.94,6.31C4.8,538.26-1.71,527,.37,495.44s.92-43.68,2.87-53c.78-3.51,6.23-2.73,6.23-2.73S22.34,350,40.28,314.49s-1.56-142.33,64.35-159.88c17.15-5.07,32-1.56,37.82-4.29s10.63-17.11,8.68-20.22-4-2.25-12.71-17.72a40.83,40.83,0,0,1-5.16-18s-2.51,26,4.12,32.58c0,0-12.48-3.9-16.38-30.81S129,32.77,129,32.77Z"/>
    </g>
  </g>
</svg>
