<svg xmlns="http://www.w3.org/2000/svg" width="282.13" height="896.88" viewBox="0 0 282.13 896.88">
  <defs>
    <style>
      .cls-1 {
        fill: #a9a9a9;
      }
    </style>
  </defs>
  <g id="Layer_2" data-name="Layer 2">
    <g id="Layer_3" data-name="Layer 3">
      <path class="cls-1" d="M108.44,27.56C119,1.12,140-2.06,155.83.91S181,9.3,186.93,27.56s5.92,57.75-6.42,82.93,8.39-24.68,1.48-39c0,0-8.21,30.29-18.08,37.69,0,0-.18,11.67,5.25,17.6s23.69-4.94,40,10.36,28.63,79.47,31.59,100.2,0,21.72,3,32.09,21.3,37.9,27.12,102.85h4.1s12.3,67.69,4.78,78.28-17.09,14.7-21.19,14.7,4.78-5.79,5.47-12.63,3.42-29.41-1.71-38.64-7.18,10.94-5.13,16.75,2.39,11.62.34,10.94-9.23-7.87-7.86-15.73-3.08-21.88-1-24.95,6.49-11.63,6.49-14.7-6.15-6.84-3.42-8.55a30.6,30.6,0,0,0-3.76-21.54c-6.49-11.28-29.74-47.51-31.79-77.6-10.26-28-14.9-48.13-16.61-53.25,0,0-28.92,66.78,15.06,112.05,27.84,31,29.92,124.78,25.48,138.11s-6.84,56.75-10.26,69.74,4.79,35.21,1.37,41.7,8.5,48.7-.4,126.55c-4,34.85-10.88,75.49-8.15,79.59s6.84,23.25,7.53,29.4S250,843,249.27,850.87s2,17.1-.68,19.15-15.73,10.25-42.05,2.39c-11.25-3.42-14.7-16.41-14-19.49s-8.54-2.73-10.94-7.52,2.74-46.15,7.18-49.91c-1-5.81-2.39-5.47-6.49-20.85s-6.5-83.07-6.5-96.4,1.37-60.51,6.15-72.13S152.52,434.5,157,423.22c-1-4.45-4.1-3.76-5.81-.35s-29.37,148-42.72,161c-2.49,21.7-10.71,41.28-13.13,43.94S91,712.92,64.85,806c5.82,17.54.6,54.6,0,56S55,869.13,55,869.13s5.7,18.53-7.84,22.81-32.07,8.55-42,0S3,871.27,8.66,864.86s10.69-47.76,15-51.32-13.54-139,28.51-196.72C50.27,598,43.38,413.34,72.9,349.07s29.84-71.49,11.15-124.29c-11.81,2.62-16.73,42-20,47.55s-1.31,37.38-39.35,98.05c4.92,12.46-3.93,11.15-1,15.41s11.48,8.53,4.26,43.95c-2.95,10-7.87,10.49-7.87,8.19s1.31-14.75-1.31-14.75-6.89,16.72-.33,21.31,12.79,6.76,15.09,8.14,19.34,10.55-15.09,5.31C4,452.63-1.43,443.18.32,416.62s.76-36.73,2.4-44.6c.66-2.95,5.25-2.3,5.25-2.3s10.82-75.42,25.9-105.26S32.56,144.77,88,130c14.43-4.26,26.89-1.31,31.81-3.61s8.94-14.38,7.3-17-3.38-1.89-10.69-14.9a34.34,34.34,0,0,1-4.34-15.17s-2.11,21.82,3.47,27.4c0,0-10.5-3.28-13.78-25.91S108.44,27.56,108.44,27.56Z"/>
    </g>
  </g>
</svg>
