<svg xmlns="http://www.w3.org/2000/svg" width="380.23" height="583.99" viewBox="0 0 380.23 583.99">
  <defs>
    <style>
      .cls-1 {
        fill: #a9a9a9;
      }
    </style>
  </defs>
  <g id="Layer_2" data-name="Layer 2">
    <g id="Layer_3" data-name="Layer 3">
      <path class="cls-1" d="M168.71,75.78s-14.93-35.64,10.56-51.65,29.52-7.38,38.24-10.06,6.4-8.95,6.4-8.95,4.14,7.42.28,9.47,6.12,2.05,10.21-4.35S236.71,0,236.71,0s6.65,12-1.28,18.68c0,0,21.5,8.45,14.07,37.88,1.56,8.19-.25,20.48-.25,20.48s.12-4.09,3.91-1.22.58,31.56-3.39,32.31-3.66-3.47-3.66-3.47-.68,20-2.16,23.45-6,8.69-6,8.69l.5,11.9s44,17.59,45.73,23.33S323,163.27,335,221.73c2,52-10,60-8,97.93,21.48,11,45.47,129.4,43,137.39s16,49,8.49,57-14.49,13-17,14-13-1.5-15-3-1.5-16-1.5-18.48-2.5,7.49-6,8-9.49-6.49-9.49-6.49,3-17,5.49-18-5.49-14,3.5-24.48a24.2,24.2,0,0,1-6-4c-3.5-3-19.49-34-27-46.47s-22.84-59.82-28-82.9c0,0,11.53,99.39,24.52,129.37,7.09,16.36,15.22,55.34,19.84,91.27,3.85,29.91-93.53,38.53-99,11.77C217.68,539,212.51,514.16,210.56,511c-4-6.48-14.49,50.48-12.49,58.47s-75.66,35.13-101.8-15c4.52-57.35,14.68-120,39.34-161.33,0,0,9-27-2-60s-19.48-46-21-61.46-26.48,37.47-40,47.47c0,0,1,34.47-5.5,55.95s-14.48,29.48-14,37-3.5,30.47-3.5,38.47S76.16,458.05,78.16,483s1,28.45-1.5,28-13.49-8.48-13-16-5.5-4-5.5-4,9,25.48,13.49,24.48S63.67,531,54.17,529s-30-6-36-6-9.49-19.48-7.49-34,2.86-21-.57-29.48-6.93-17-6.93-17-11.49-114.91,9-141.39,38-66.45,43.46-74.44,0-58,75.45-68.95c0,0,34.21-8,37.59-16.49s7.86-11.49,7.12-17-4.24-14-4.24-14-3,4.5-6.5-5S158.84,69.23,168.71,75.78Z"/>
    </g>
  </g>
</svg>
