<svg xmlns="http://www.w3.org/2000/svg" width="420.88" height="851.42" viewBox="0 0 420.88 851.42">
  <defs>
    <style>
      .cls-1 {
        fill: #a9a9a9;
      }
    </style>
  </defs>
  <g id="Layer_2" data-name="Layer 2">
    <g id="Layer_2-2" data-name="Layer 2">
      <path class="cls-1" d="M377.25,566.87c-21.6,17.51-18.68,24.51-12.26,21.59s19.26,1.17,19.26,1.17-15.76,26.85-57.78,25.68-50-16.34-50-16.34,3.93-50.19,12.69-64.2C294,527,293.64,519,294.55,514c1.61-8.72,1.26-8.23,2.52-13.84,7.67-34.06,11.31-115.39,11.31-115.39,12.84-7.59,8.17-28,7-43.78s32.68-70.62,32.68-75.29-15.75-42-11.08-41.43,11.08,9.92,11.08,9.92c0-7.59-15.17-22.76-15.17-22.76,8.17,1.75,12.84-5.26,12.84-5.26-5.84,1.75-7-1.16-13.42-7s2.91-5.25,2.91-23.93S307.79,154.82,316,151.32s7-9.92,7-9.92c-1.75,4.08-7,9.92-15.18,2.92s6.42-13.43,9.93-26.27-24.83-9.78-24.83-9.78c9.92-2.92,18.32-56.17,18.32-56.17.46,7.46-18,22.19-21.73,24.29a14.05,14.05,0,0,0-2.09,1.39c-1.28,1.07-4.36,2.09-5.28-11.67-1.16-17.51-9.33-22.18-9.33-22.18,5.25,0,4.66-10.5,4.66-10.5C289.12,32.26,289,28.06,289,28.06,302.85,23.17,308.63,4.41,310,0c-3.38,8.21-27.3,22.39-39.72,23.83C257,25.36,263.11,38.66,258,32.52s-9.21,4.1-8.61,1-19.65-8.38-19.65-8.38A48.23,48.23,0,0,0,255.85,0C244.6,11.26,219.11,17.18,215,19.22s-10.23,21.49-10.23,21.49c-5.54,1.45-20.14,13.14-17.81,20.15s4.09,23.34-4.08,22.76c-7.88-.56-6.54-4.37-6.43-4.65-2.89,6.41,6.43,12.24,6.43,12.24-14,6.42-2.34,19.84-2.34,19.84-1.56-5.81,2.92-8.17,2.92-8.17,0,4.67,1.75,10.5,2.92,10.5S180,118.64,173,122.14s-7.58-2.34-7.58-2.34a11.17,11.17,0,0,0,3.5,8.18c-4.67,4.08-8.76,8.75-15.76,25.09s5.84,20.43,1.17,26.85-15.76,3.5-15.76,3.5c-.58,7.59,7.59,11.67,7.59,11.67-8.17,4.09-5.26,26.27-5.26,26.27-.58-4.67,6.42-11.68,6.42-11.68s4.67,7.59,3.51,11.09-9.34,59.53-9.34,59.53l-5.26.59c-7,19.26-10.14,91.26-13.47,99.28-4.63,11.15-1.6,5.48-1.6,5.48l-5.51,7.89s-2.19,3.93-1.61,11.52,4.41,19.37,10.83,24,14.34,8.83,14.34,12.34,5-10.82,5-10.82c-18-26-5.26-36.75,0-44.92s9.53,15.47,9.53,15.47c-7,37.35,4.09,61.28,4.09,63.61s-5.84,42.61-10.51,53.11a171.13,171.13,0,0,1-11.09,20.43c-29.18-14-99.27-13.53-123.14,9.34-17.39,16.65-17.44,30.55,0,53.69,18.12,24.06,52,32.48,75.87,26.27,19.51-5.08,22.77-9.4,22.77-9.4s3,0,1.16,8.23c-1.52,6.64-7,103.3-7,108.56s-6.42,4.67-6.42,4.67l2.33,9.33s-9.92,14-7,30.35a93.18,93.18,0,0,1,0,30.94l4.08,7.58s-4.67,4.09,4.09,19.85c16.92,21,42,11.67,47.86,11.67s24.51-9.92,8.75-19.71-21.89-51.49-21-70.75c-6.42-15.18,29.85-117.27,29.85-123.69s-8.08-2.12-2.24-5,15.68-45.35,15.68-45.35l3-9.23s31.91,19.89,38.33,22.22l-1.4,15.53a115.12,115.12,0,0,1-.33,14.12c-1,15.54,36.66,96.29,30.24,104.46s-6.92,41.57-4.58,46.24,4.08,46.69,4.08,46.69l11.67.58,5.26-3.5c-2.92-10.51,5.25-31.52,5.25-31.52s30.93,27.43,36.18,35.6,50.78,0,50.78,0,6.42-10.5,2.34-14-22.18-1.75-29.19-7-46.1-71.2-43.19-80.54S278,620,282.7,623.48s18.09,4.67,18.09,4.67c56,14,91.63-34.43,91.63-34.43-4.08,12.25,4.09,9.34,4.09,9.34,18.37-14.18,23.52-79.84,24.37-89C419.09,521.09,397.91,550.12,377.25,566.87Zm-81-282.2c6.46-18,12.91-31.82,12.91-31.82l5.54,11.53s-12,43.81-18.45,47.5C296.23,311.88,289.78,302.65,296.23,284.67ZM116.56,584.87c-2.64.89-34.63,18.37-34.63,18.37s-57.93-.73-50-33.35c35.62-43.1,90.8-10.58,90.8-10.58C114.86,576.06,119.21,584,116.56,584.87ZM190.64,325h-3.23l-9.68,16.37s4.15,2.3,2.31,4.15S175.89,358,175.89,358l-5.08,1.39s-4.74,13.42-7,12-6.33,14.24-6.33,14.24c2.77-6.92-8.76-18.44-12.91-26.74s29.28-62.25,29.28-62.25-2.53-7.84-2.07-9.68S179,255.67,179,255.67c15.68-.46,21.34,47,21.34,47v4.61L193.26,310l-2.62,9.22Zm33.48,251-30.86-17.63c9-6,43.2-94.52,43.2-94.52,1.76,6.17,0,59.25,0,69.83S224.12,576.06,224.12,576.06Z"/>
    </g>
  </g>
</svg>
