<svg xmlns="http://www.w3.org/2000/svg" width="302.17" height="621.72" viewBox="0 0 302.17 621.72">
  <defs>
    <style>
      .cls-1 {
        fill: #a9a9a9;
      }
    </style>
  </defs>
  <g id="Layer_2" data-name="Layer 2">
    <g id="Layer_2-2" data-name="Layer 2">
      <path class="cls-1" d="M274.84,606.83c-1.77-8.16-2.59-14.21-.95-14.71,4.93-1.47,15.77-35.46,13.31-37.44s-5.42-14.28-6.9-31,21.87-68.47,16.75-96.55c9.85-33.5,2.46-59.12,2.46-59.12-.49,9.36-9.36,19.22-9.36,19.22,10.84-59.12-4.43-91.63-4.43-91.63,11.33-14.29,3.45-41.38,3.45-41.38l4.43-8.87c-.49-7.88-14.78-21.18-14.78-21.18V220.2L264,209.85a5.88,5.88,0,0,0,0-6.89c-11.82-12.32-30.54-12.32-30.54-12.32-11.33-9.36-30.54-8.86-36.45-13.79s-8.9-21.26-8.9-21.26l14.58-26.13a7.26,7.26,0,0,0,.89-4.28l-2.28-22.67c11.33-13.3,15.49-44.83,15.49-44.83-3,10.34-18.13,15.16-18.13,15.16C226.4,27.67,198,0,198,0s8.05,20.14,3.64,23.06c-8.44,5.58-6.46,15.16-6.46,15.16-14.31-1.31-11,16.35-14.38,16.35S160,52.32,160,52.32s4.61-5.51.71-14.67c-.43-1,1.5,13.86-16.76,17.39-10,1.93-20.11,12.2-20.11,12.2l-7.25-5.94c-3.37-9-15.1-8.7-15.1-8.7s2.25-10.12-5.64-13.49,0-30.34,0-30.34A114.66,114.66,0,0,0,84.65,52.6c-1.12,24.73,22.48,34.84,22.48,34.84C94.77,83,84.65,74,84.65,74c2.25,27,22.48,36,22.48,36l11.1,8.31L121.8,137a8.88,8.88,0,0,0,2.76,4.92l19.75,17.92a19.65,19.65,0,0,1-2.44,21.95s-31.48,12.28-48.22,8.34-31.09,13.82-31.09,13.82l-18.72,13.8c-2.46,4.92-.49,10.83-.49,10.83S26.57,245.76,31.1,252.5s8.31,6.62,8.31,6.62c-.49,5.41,1.12,14.61,1.12,14.61S20.32,299.2,17.82,323.17c-2,19.06-.09,60.58-5.5,65.5A20.1,20.1,0,0,1,0,393.6C30.05,432,86.21,442.86,86.21,442.86S70,492.12,71.92,526.11c1.19,20.56,1.24,40.73,1.24,76.5C73.16,631.49,278.37,623.18,274.84,606.83ZM108,374.09c-2.72,6.51-8.69,41.25-8.69,41.25s-26.6-37.45-38-36.91c0,0,19.55-35.82,20.09-59.71C81.42,318.72,110.73,367.58,108,374.09Zm46.38,246c4.06-28.54,17.13-62,17.13-62s10.31,41.26,4.88,59.71C166.11,619.83,162.86,621.28,154.4,620.07Zm87.69-191.7s-23.34-30.4-3.8-99.88c0,0-.33,49.4,12.05,67.31C250.34,395.8,237.75,420.77,242.09,428.37Z"/>
    </g>
  </g>
</svg>
