<svg xmlns="http://www.w3.org/2000/svg" width="279.86" height="562.42" viewBox="0 0 279.86 562.42">
  <defs>
    <style>
      .cls-1 {
        fill: #a9a9a9;
      }
    </style>
  </defs>
  <g id="Layer_2" data-name="Layer 2">
    <g id="Layer_2-2" data-name="Layer 2">
      <path class="cls-1" d="M227.81,559.87c9.16-40.71,4.61-100,4.61-100,15.35-9.07,9.77-33.48,8.37-52.32s39.07-84.4,39.07-90S261,267.35,266.6,268.05s13.26,11.86,13.26,11.86c0-9.07-18.14-27.2-18.14-27.2,9.77,2.09,15.35-6.28,15.35-6.28-7,2.09-8.37-1.4-16.05-8.37s3.49-6.28,3.49-28.6-32.78-24.42-23-28.6S249.86,169,249.86,169c-2.09,4.88-8.37,11.86-18.13,3.49s7.67-16.05,11.85-31.39-29.67-11.7-29.67-11.7c11.86-3.49,21.89-67.13,21.89-67.13.56,8.91-21.51,26.52-26,29A15.92,15.92,0,0,0,207.34,93c-1.53,1.27-5.21,2.49-6.31-14-1.39-20.92-11.16-26.5-11.16-26.5,6.28,0,5.58-12.56,5.58-12.56,14-1.39,13.78-6.41,13.78-6.41C225.82,27.69,232.72,5.27,234.34,0c-4,9.81-32.62,26.77-47.46,28.48-15.9,1.83-8.56,17.73-14.67,10.39s-11,4.89-10.28,1.23-23.49-10-23.49-10A57.69,57.69,0,0,0,169.65,0c-13.46,13.45-43.92,20.53-48.81,23s-12.23,25.69-12.23,25.69C102,50.39,84.54,64.37,87.33,72.74s4.88,27.9-4.88,27.2c-9.41-.67-7.81-5.23-7.68-5.56C71.31,102.05,82.45,109,82.45,109c-16.74,7.67-2.79,23.72-2.79,23.72-1.87-6.95,3.49-9.77,3.49-9.77,0,5.58,2.09,12.56,3.48,12.56S79,141.79,70.59,146s-9.07-2.79-9.07-2.79A13.3,13.3,0,0,0,65.71,153c-5.58,4.89-10.47,10.47-18.84,30s7,24.41,1.4,32.09-18.84,4.18-18.84,4.18c-.69,9.07,9.07,13.95,9.07,13.95-9.76,4.89-6.28,31.39-6.28,31.39-.69-5.58,7.68-13.95,7.68-13.95s5.58,9.07,4.18,13.26S32.92,335,32.92,335l-6.28.69c-8.37,23-12.12,109.09-16.1,118.66-5.53,13.34-1.91,6.56-1.91,6.56L2,470.36S-.58,475.05.12,484.12s5.27,23.16,12.94,28.67S30.2,523.35,30.2,527.54s6-12.93,6-12.93c-21.45-31-6.28-43.92,0-53.68s11.4,18.48,11.4,18.48c-8.37,44.64,4.88,73.24,4.88,76S226.3,566.58,227.81,559.87Zm-9.9-219.64c7.71-21.49,15.43-38,15.43-38L240,316s-14.33,52.36-22,56.77C217.91,372.75,210.19,361.73,217.91,340.23ZM91.71,388.46H87.85L76.28,408s5,2.76,2.75,5-5,14.88-5,14.88L68,429.51s-5.67,16.05-8.42,14.39-7.56,17-7.56,17c3.3-8.27-10.47-22.05-15.43-32s35-74.4,35-74.4-3-9.37-2.48-11.57,8.66-37.41,8.66-37.41c18.74-.55,25.51,56.15,25.51,56.15v5.51l-8.44,3.31-3.13,11Z"/>
    </g>
  </g>
</svg>
