<svg xmlns="http://www.w3.org/2000/svg" width="382.04" height="867.32" viewBox="0 0 382.04 867.32">
  <defs>
    <style>
      .cls-1 {
        fill: #a9a9a9;
      }
    </style>
  </defs>
  <g id="Layer_2" data-name="Layer 2">
    <g id="Layer_2-2" data-name="Layer 2">
      <path class="cls-1" d="M353.31,581.25c5.65,17.42,2.61,25.26,2.61,25.26-4.36-5.23-10-12.2-31.79-12.2S264.05,654,264.05,654c-7.84-2.61-7.84-47.45-7.84-47.45,11.76-8.28,12.63-22.21,13.93-29.18s-13.93-52.68-9.57-54,13.93-31.35,11.75-33.1-4.79-12.62-6.09-27.42,19.33-60.52,14.8-85.34c8.71-29.61,2.18-52.25,2.18-52.25-.44,8.27-8.28,17-8.28,17,9.58-52.25-3.91-81-3.91-81,10-12.63,3-36.58,3-36.58l3.92-7.83c-.43-7-13.06-18.73-13.06-18.73v-3.48l-13.06-9.14a5.24,5.24,0,0,0,0-6.1c-10.45-10.88-27-10.88-27-10.88-10-8.27-27-7.84-32.22-12.19s-7.86-18.79-7.86-18.79l12.89-23.09a6.43,6.43,0,0,0,.78-3.79l-2-20C206.45,78.85,210.13,51,210.13,51c-2.61,9.14-16,13.4-16,13.4,24.47-39.92-.6-64.38-.6-64.38s7.12,17.8,3.22,20.38c-7.45,4.94-5.71,13.4-5.71,13.4-12.65-1.16-9.73,14.45-12.71,14.45s-18.39-2-18.39-2,4.08-4.87.62-13c-.37-.87,1.33,12.25-14.8,15.37C136.93,50.35,128,59.43,128,59.43l-6.41-5.25c-3-8-13.35-7.69-13.35-7.69s2-8.94-5-11.92,0-26.82,0-26.82A101.59,101.59,0,0,0,93.3,46.49c-1,21.85,19.87,30.79,19.87,30.79-10.93-4-19.87-11.92-19.87-11.92,2,23.84,19.87,31.79,19.87,31.79l9.81,7.34,3.16,16.59a7.84,7.84,0,0,0,2.43,4.35L146,141.26a17.36,17.36,0,0,1-2.15,19.4s-27.82,10.86-42.63,7.37-27.47,12.22-27.47,12.22L57.24,192.44c-2.18,4.36-.44,9.58-.44,9.58S42,217.21,46,223.17,53.32,229,53.32,229c-.44,4.79,1,12.92,1,12.92s-17.86,22.51-20.08,43.7c-1.76,16.84-.07,53.53-4.86,57.89a17.76,17.76,0,0,1-10.88,4.35c26.56,34,76.19,43.54,76.19,43.54S80.31,435,82.05,465,4.55,549,.2,606.07s64,83.6,64,83.6c4.36,7,2.18,88,2.18,95.35s-7,13.06-7.84,20.46S52.45,824.2,49,828.12s0,19.59,0,28.3,26.56,10.45,31.79,10.89S104.69,856,108.61,851.2s-3.92-23.08-3.92-23.08l7-7.84s2.18-18.72-5.66-29.17c-7.84-50.94,12.19-83.59,12.19-83.59,60.52,7.4,80.55-3.92,80.55-3.92s-2.18,1.74,2.18,4.79,12.19,60.52,3.92,67.05-4.36,28.3-4.36,28.3l.44,5.66c.43,5.66,21.33,8.27,21.33,8.27l5.66-4.79s8.71,3.92,15.24,7,15.67,20.46,24.38,22.2c24.38,1.31,30.92-6.53,34.83-8.7s3.92-23.08-4.79-24.82-20.46-11.32-32.65-27-11.32-20.46-14.8-41.36,1.74-58.34,1.74-58.34,15.67-13.93,21.77-19.16,34.83-62.7,52.68-61.82c29.61,1.74,29.17,15.23,29.17,15.23-19.16-5.66-32.22-1.3-32.22-1.3,39.62,11.75,58.78,41.8,58.78,41.8C375.07,601.72,353.31,581.25,353.31,581.25ZM65,607.46C52.55,643,53.5,649.2,53.5,649.2s-6.23-1.44-10.07-11C21.36,592.11,65,562.36,65,562.36s-1.92,5.76-10.08,23S65,607.46,65,607.46ZM114,330.64c-2.4,5.75-7.68,36.46-7.68,36.46S82.77,334,72.7,334.47c0,0,17.27-31.66,17.75-52.77C90.45,281.7,116.35,324.88,114,330.64Zm78.68,336.79c-2.88,2.4,0,17.75,0,17.75-58.12,1.64-65.25-6.23-65.25-6.23,1.44-2.4,2.88-22.07,2.88-22.07l9.59-5.76-7.19-41.74s19.19,7.68,19.19-18.23c1-68.61,18.23-97.87,18.23-97.87s9.11,36.46,4.32,52.77c-8.64,52.77,10.07,54.69,10.07,54.69-3.84,12,10.08,8.16,10.08,8.16-4.8,5.28-13.12,52.77-13.12,52.77Zm39.82-288.82s-20.63-26.86-3.36-88.27c0,0-.29,43.66,10.65,59.49C239.75,349.83,228.62,371.9,232.46,378.61Z"/>
    </g>
  </g>
</svg>
